<?xml version="1.0" encoding="utf-8"?>
<!-- Generator: Adobe Illustrator 22.1.0, SVG Export Plug-In . SVG Version: 6.00 Build 0)  -->
<svg version="1.1" id="Layer_1" xmlns="http://www.w3.org/2000/svg" xmlns:xlink="http://www.w3.org/1999/xlink" x="0px" y="0px"
	 viewBox="0 0 500 500" style="enable-background:new 0 0 500 500;" xml:space="preserve">
<style type="text/css">
	.st0{fill:#EBEBEB;}
	.st1{fill:#1F5082;}
	.st2{fill:#F99F3F;}
	.st3{fill:#FFFFFF;}
	.st4{fill:#4FC2C6;}
	.st5{fill:#EE4358;}
	.st6{fill:#1D5083;}
</style>
<polygon class="st0" points="496.4,248.6 251.4,248.6 251.4,22.8 248.6,22.8 248.6,248.6 3.6,248.6 3.6,251.4 248.6,251.4 
	248.6,477.2 251.4,477.2 251.4,251.4 496.4,251.4 "/>
<g>
	<path class="st1" d="M110.7,100.7c0.8-0.8,1.4-2,1.4-3.3c0-1.2-0.5-2.5-1.5-3.5c-0.9-0.9-2-1.2-3.1-1.2c-1.4,0-2.7,0.6-3.4,1.4
		c-0.8,0.9-1.2,2-1.2,3.2c0,1.4,0.7,2.7,1.6,3.5c0.7,0.7,1.8,1.1,3,1.1C108.7,102,109.9,101.4,110.7,100.7z"/>
	<path class="st1" d="M136.1,114.6c-1.4,0-2.7,0.6-3.4,1.4c-0.8,0.9-1.2,2-1.2,3.2c0,1.4,0.7,2.7,1.6,3.5c0.7,0.7,1.8,1.1,3,1.1
		c1.2,0,2.5-0.6,3.3-1.3c0.8-0.8,1.4-2,1.4-3.3c0-1.2-0.5-2.5-1.5-3.5C138.3,114.9,137.3,114.6,136.1,114.6z"/>
	<path class="st1" d="M174.9,108.1c2.2-3.5,1.6-8.1-1.3-11l-4.3-4.2c-1-1-1.5-2.3-1.4-3.6l0.4-6c0.3-4.2-2.3-7.9-6.3-9.1l-5.6-1.7
		c-1.3-0.4-2.4-1.3-2.9-2.6l-2.4-5.4c-1.6-3.8-5.8-6-9.9-5.2l-5.7,1.1c-1.3,0.3-2.7-0.1-3.8-0.9l-4.5-3.7c-3.2-2.6-7.9-2.6-11.2,0
		l-4.5,3.7c-1.1,0.9-2.4,1.2-3.8,0.9l-5.7-1.1c-4.1-0.8-8.2,1.4-9.9,5.2l-2.4,5.4c-0.5,1.3-1.6,2.2-2.9,2.6l-5.6,1.7
		c-4,1.2-6.6,5-6.3,9.1l0.4,6c0.1,1.4-0.4,2.7-1.4,3.6l-4.3,4.2c-3,2.9-3.5,7.4-1.3,11l3.1,5.1c0.7,1.2,0.9,2.5,0.5,3.8l-1.8,5.7
		c-1.3,4,0.3,8.2,3.9,10.4l5.1,3c1.2,0.7,2,1.9,2.2,3.2l1,5.9c0.7,4.1,4.1,7.2,8.3,7.4l5.8,0.3c1.4,0.1,2.6,0.7,3.4,1.8l3.6,4.7
		c1.7,2.3,4.4,3.5,7.1,3.5c1.3,0,2.5-0.3,3.7-0.8l5.3-2.5c1.2-0.6,2.7-0.6,3.9,0l5.3,2.5c3.8,1.8,8.3,0.6,10.8-2.7l3.6-4.7
		c0.8-1.1,2.1-1.8,3.5-1.8l5.8-0.3c4.2-0.2,7.6-3.2,8.3-7.4l1-5.9c0.2-1.3,1-2.5,2.2-3.2l5.1-3c3.6-2.1,5.2-6.4,3.9-10.4l-1.8-5.7
		c-0.4-1.3-0.2-2.7,0.5-3.8L174.9,108.1z M98.8,104.2c-1.8-1.9-2.6-4.1-2.6-6.7c0-2.7,0.9-5.2,2.5-7c2.6-2.9,6.3-3.3,8.6-3.3
		c4.4,0,7.1,1.5,8.8,3.3c1.2,1.3,2.6,3.5,2.6,6.8c0,3.1-1.2,5.4-2.7,6.8c-2.6,2.7-6,3.3-8.7,3.3C104.5,107.5,101.4,106.9,98.8,104.2
		z M112.5,128.9h-5.3L131,87.7h5.4L112.5,128.9z M144.7,126.1c-2.6,2.7-6,3.3-8.7,3.3c-2.8,0-6-0.6-8.6-3.3
		c-1.8-1.9-2.6-4.1-2.6-6.7c0-2.7,0.9-5.2,2.5-7c2.6-2.9,6.3-3.3,8.6-3.3c4.4,0,7.1,1.5,8.8,3.3c1.2,1.3,2.6,3.5,2.6,6.8
		C147.3,122.4,146.1,124.6,144.7,126.1z"/>
</g>
<g>
	<g>
		<path class="st2" d="M123.3,297.2c5.4,0.2,7.7-6.4,5.2-11.2c-1.2-2.3-5.3-8.5-5.3-8.5l-0.1,0.1c0,0-4.1,6.2-5.3,8.5
			c-2.5,4.8-0.1,11.3,5.2,11.1"/>
	</g>
	<g>
		<path class="st2" d="M80.5,379.8l81.8,24.8c0,0,0.1-10.5,0.3-22.3l-82.1-24.5V379.8z"/>
		<path class="st2" d="M163,348.8c0,0-20.6-39.8-25.6-39.2c-5.1,0.6-35.9-4.3-56.6,14.1l82.2,25.2C163,348.9,163,348.8,163,348.8z"
			/>
		<path class="st2" d="M163,351.7l-82.5-25.3V345l82.3,24.6C162.9,362.1,162.9,355.3,163,351.7z"/>
		<path class="st3" d="M80.5,345v12.8l82.1,24.5c0.1-4.2,0.1-8.6,0.2-12.7L80.5,345z"/>
		<path class="st3" d="M163,348.9l-82.2-25.2c-0.1,0.1-0.2,0.2-0.3,0.3l0.4,0.1c-0.3-0.1-0.5-0.1-0.5-0.1v2.4l82.5,25.3
			C163,350.2,163,349.2,163,348.9z"/>
	</g>
	<g>
		<path class="st3" d="M125.5,300.3c0.8-0.1,3-0.2,5.8-3.1v29.2c0,1.8-3.6,3.2-8,3.2c-4.4,0-8-1.4-8-3.2v-29.2c0,0-0.1,1.5,2.1,2.1"
			/>
		<path class="st2" d="M123.2,330.9c-4.7,0-9.4-1.6-9.4-4.6v-29.1c0-0.1,0-0.1,0-0.2l2.7,0.1c0,0,0.1,0.5,1.1,0.8l-0.8,2.5
			c-0.1,0-0.2-0.1-0.3-0.1v25.9c0,0.5,2.4,1.9,6.7,1.9s6.7-1.4,6.7-1.9v-26.3c-1.9,1.3-3.4,1.5-4.2,1.5l-0.5-2.6l0.2,0
			c0.8-0.1,2.5-0.3,4.8-2.7l2.3,0.9v29.2C132.6,329.4,127.9,330.9,123.2,330.9z"/>
	</g>
	<path class="st2" d="M123.2,301.8c-4.7,0-9.4-1.6-9.4-4.6c0-6,18.8-6,18.8,0C132.6,300.2,127.9,301.8,123.2,301.8z M123.2,295.3
		c-4.3,0-6.7,1.4-6.7,1.9c0,0.5,2.4,1.9,6.7,1.9c4.3,0,6.7-1.4,6.7-1.9C129.9,296.7,127.5,295.3,123.2,295.3z"/>
</g>
<g>
	<path class="st1" d="M14.4,192.8h-2.8v-4.4h8v19.8h-5.1V192.8z"/>
	<path class="st1" d="M37,206.4c-1.5,1.5-3.5,2.3-5.5,2.3c-1.9,0-3.9-0.7-5.5-2.3c-1.8-1.8-2.9-4.6-2.9-8.1c0-3.5,1.2-6.4,2.9-8.1
		c1.5-1.5,3.5-2.3,5.5-2.3c1.9,0,3.9,0.7,5.5,2.3c1.8,1.8,2.9,4.6,2.9,8.1C40,201.8,38.8,204.7,37,206.4z M30,193.2
		c-1.1,0.9-1.7,3.3-1.7,5.2c0,1.6,0.6,4.2,1.7,5.2c0.4,0.4,1,0.6,1.6,0.6c0.6,0,1.2-0.3,1.6-0.6c1.1-0.9,1.7-3.4,1.7-5.1
		c0-1.8-0.7-4.3-1.7-5.2c-0.4-0.4-1-0.6-1.6-0.6C31,192.6,30.4,192.9,30,193.2z"/>
	<path class="st1" d="M42,198.3h7.5v3.9H42V198.3z"/>
	<path class="st1" d="M57,201.5c0,0.7,0.3,1.5,0.8,2c0.4,0.5,1.2,0.8,2,0.8c1,0,1.6-0.4,2-0.9c0.4-0.5,0.6-1,0.6-1.6
		c0-0.9-0.4-1.5-0.8-1.8c-0.5-0.4-1.3-0.6-1.9-0.6c-0.3,0-0.6,0-0.9,0.1v-3.5c1,0.1,1.7-0.1,2.1-0.5c0.5-0.4,0.7-0.9,0.7-1.4
		c0-0.5-0.2-1.1-0.5-1.4c-0.3-0.3-0.9-0.5-1.5-0.5c-0.6,0-1.1,0.2-1.4,0.5c-0.4,0.4-0.7,1.1-0.7,1.8h-4.8c0.1-2.1,1-3.6,1.9-4.5
		c1.5-1.5,3.3-1.9,5.2-1.9c1.5,0,3.4,0.3,4.9,1.8c1,1,1.6,2.3,1.6,3.8c0,0.9-0.1,1.6-0.6,2.4c-0.4,0.7-0.8,1.2-1.5,1.5
		c1.2,0.4,1.9,1.2,2.3,1.8c0.6,0.8,0.8,1.8,0.8,2.9c0,2.1-0.9,3.5-1.8,4.3c-1.1,1.1-3,2.1-5.9,2.1c-1.9,0-3.9-0.4-5.7-2
		c-1-0.9-2.2-2.6-2.5-5.2H57z"/>
	<path class="st1" d="M83.1,206.4c-1.5,1.5-3.5,2.3-5.5,2.3c-1.9,0-3.9-0.7-5.5-2.3c-1.8-1.8-2.9-4.6-2.9-8.1c0-3.5,1.2-6.4,2.9-8.1
		c1.5-1.5,3.5-2.3,5.5-2.3c1.9,0,3.9,0.7,5.5,2.3c1.8,1.8,2.9,4.6,2.9,8.1C86.1,201.8,84.9,204.7,83.1,206.4z M76.1,193.2
		c-1.1,0.9-1.7,3.3-1.7,5.2c0,1.6,0.6,4.2,1.7,5.2c0.4,0.4,1,0.6,1.6,0.6c0.6,0,1.2-0.3,1.6-0.6c1.1-0.9,1.7-3.4,1.7-5.1
		c0-1.8-0.7-4.3-1.7-5.2c-0.4-0.4-1-0.6-1.6-0.6C77.1,192.6,76.5,192.9,76.1,193.2z"/>
	<path class="st1" d="M88.8,196.4c-0.9-0.9-1.2-2-1.2-3.2c0-1.3,0.4-2.5,1.2-3.4c1.2-1.4,3-1.6,4.2-1.6c2.1,0,3.4,0.7,4.2,1.6
		c0.6,0.6,1.2,1.7,1.2,3.3c0,1.5-0.6,2.6-1.3,3.3c-1.2,1.3-2.9,1.6-4.2,1.6C91.5,198,90,197.7,88.8,196.4z M91.3,191.5
		c-0.4,0.4-0.6,1-0.6,1.5c0,0.7,0.3,1.3,0.8,1.7c0.4,0.3,0.9,0.5,1.5,0.5c0.6,0,1.2-0.3,1.6-0.6c0.4-0.4,0.7-1,0.7-1.6
		c0-0.6-0.2-1.2-0.7-1.7c-0.4-0.4-0.9-0.6-1.5-0.6C92.3,190.9,91.7,191.2,91.3,191.5z M104.3,188.5h2.6l-11.5,19.8h-2.6L104.3,188.5
		z M102.6,206.9c-0.9-0.9-1.2-2-1.2-3.2c0-1.3,0.4-2.5,1.2-3.4c1.2-1.4,3-1.6,4.2-1.6c2.1,0,3.4,0.7,4.2,1.6
		c0.6,0.6,1.2,1.7,1.2,3.3c0,1.5-0.6,2.6-1.3,3.3c-1.2,1.3-2.9,1.6-4.2,1.6C105.3,208.5,103.8,208.2,102.6,206.9z M105.1,202.1
		c-0.4,0.4-0.6,1-0.6,1.5c0,0.7,0.3,1.3,0.8,1.7c0.4,0.3,0.9,0.5,1.5,0.5c0.6,0,1.2-0.3,1.6-0.6c0.4-0.4,0.7-1,0.7-1.6
		c0-0.6-0.2-1.2-0.7-1.7c-0.4-0.4-1-0.6-1.5-0.6C106.1,201.4,105.5,201.7,105.1,202.1z"/>
	<path class="st1" d="M135,206.5c-1.8,1.7-3.8,2.2-5.9,2.2c-1.9,0-4.1-0.4-5.9-2.2c-1.5-1.4-2-3.1-2-4.9c0-2.4,1.1-3.9,2-4.9
		c1.1-1.1,3-2.2,5.9-2.2c2.9,0,4.8,1.2,5.9,2.2c1,0.9,2,2.5,2,4.9C137.1,203.4,136.5,205.1,135,206.5z M127,199.4
		c-0.6,0.6-0.9,1.4-0.9,2.2c0,0.8,0.4,1.6,0.9,2.1c0.6,0.6,1.3,0.9,2.1,0.9c0.8,0,1.5-0.3,2.1-0.9c0.6-0.6,0.9-1.3,0.9-2.1
		c0-0.7-0.3-1.6-0.9-2.2c-0.5-0.5-1.4-0.9-2.1-0.9C128.3,198.6,127.5,198.9,127,199.4z"/>
	<path class="st1" d="M144.9,198.9v9.4h-4.7v-9.4h-1.7V195h1.7v-2.2c0-1.4,0.1-2.9,1.2-4.4c1.2-1.6,3-2.1,4.6-2.1
		c0.9,0,1.6,0.2,2.3,0.4v4.1c-0.7-0.4-1.2-0.4-1.5-0.4c-0.7,0-1.1,0.3-1.3,0.5c-0.5,0.6-0.5,1.6-0.5,2.2v1.9h3.3v3.9H144.9z"/>
	<path class="st1" d="M156,198.9v9.4h-4.7v-9.4h-1.7V195h1.7v-2.2c0-1.4,0.1-2.9,1.2-4.4c1.2-1.6,3-2.1,4.6-2.1
		c0.9,0,1.6,0.2,2.3,0.4v4.1c-0.7-0.4-1.2-0.4-1.5-0.4c-0.7,0-1.1,0.3-1.3,0.5c-0.5,0.6-0.5,1.6-0.5,2.2v1.9h3.3v3.9H156z"/>
	<path class="st1" d="M176.5,188.5c1.5,0,3.4,0.2,4.8,1.8c1.1,1.2,1.7,2.9,1.7,4.5c0,1.7-0.6,3.2-1.6,4.1c-0.8,0.7-1.8,1.2-2.7,1.4
		l6.2,8.1h-6.4l-4.9-7.6v7.6h-5.1v-19.8H176.5z M173.7,197.3h1c0.8,0,1.9-0.2,2.5-0.8c0.4-0.4,0.7-1,0.7-1.7c0-0.6-0.2-1.2-0.7-1.7
		c-0.5-0.5-1.3-0.8-2.5-0.8h-1V197.3z"/>
	<path class="st1" d="M195.1,188.5c1.5,0,3.4,0.2,4.8,1.8c1.1,1.2,1.7,2.9,1.7,4.5c0,1.7-0.6,3.2-1.6,4.1c-0.8,0.7-1.8,1.2-2.7,1.4
		l6.2,8.1h-6.4l-4.9-7.6v7.6h-5.1v-19.8H195.1z M192.3,197.3h1c0.8,0,1.9-0.2,2.5-0.8c0.4-0.4,0.7-1,0.7-1.7c0-0.6-0.2-1.2-0.7-1.7
		c-0.5-0.5-1.3-0.8-2.5-0.8h-1V197.3z"/>
	<path class="st1" d="M210.9,201.7v6.6h-5.1v-19.8h8.2c1.7,0,3.5,0.3,5,1.8c1.5,1.5,1.8,3.1,1.8,4.8c0,1.6-0.2,3.4-1.8,4.9
		c-1.5,1.5-3.4,1.7-4.9,1.7H210.9z M210.9,197.5h1.7c0.5,0,1.5-0.1,2.2-0.6c0.6-0.5,0.7-1.3,0.7-1.8c0-0.5-0.1-1.2-0.6-1.8
		c-0.6-0.6-1.5-0.7-2.2-0.7h-1.8V197.5z"/>
	<path class="st1" d="M231.4,193.2l-0.3,2h-1.8l-0.5,3.1h-2.3l0.5-3.1h-1.5l-0.5,3.1h-2.3l0.5-3.1h-1.8l0.3-2h1.7l0.2-1.4h-1.7
		l0.3-2h1.7l0.5-2.9h2.3l-0.5,2.9h1.5l0.5-2.9h2.3l-0.5,2.9h1.7l-0.3,2h-1.7l-0.2,1.4H231.4z M227.6,191.8h-1.5l-0.2,1.4h1.5
		L227.6,191.8z"/>
</g>
<g>
	<path class="st2" d="M29.9,450.9v-19.8h7.7c1.4,0,3.1,0.2,4.3,1.5c0.7,0.7,1.2,2,1.2,3.7c0,0.9-0.1,1.6-0.6,2.4
		c-0.4,0.8-0.9,1.2-1.6,1.5c1,0.1,2.1,0.6,2.7,1.2c0.8,0.8,1.3,2,1.3,3.6c0,1.9-0.7,3.1-1.5,3.9c-1.1,1.1-2.9,1.9-5.4,1.9H29.9z
		 M35,438.9h1c0.5,0,1.4-0.1,2-0.6c0.3-0.3,0.5-0.9,0.5-1.3c0-0.5-0.2-1-0.5-1.3c-0.3-0.3-0.9-0.6-2-0.6h-1V438.9z M35,446.9h1.2
		c1.4,0,2.6-0.1,3.2-0.8c0.2-0.3,0.4-0.7,0.4-1.3c0-0.6-0.2-1.1-0.5-1.4c-0.6-0.6-1.9-0.7-3.2-0.7H35V446.9z"/>
	<path class="st2" d="M50.2,429.5c1.5,0,2.7,1.2,2.7,2.7c0,1.5-1.2,2.7-2.7,2.7c-1.5,0-2.7-1.2-2.7-2.7
		C47.5,430.7,48.7,429.5,50.2,429.5z M52.5,437.7v13.3h-4.7v-13.3H52.5z"/>
	<path class="st2" d="M55.8,437.7h4.7v2.2c0.5-0.9,1.2-1.5,1.9-1.8c0.7-0.4,1.6-0.5,2.5-0.5c0.1,0,0.3,0,1,0.1v4.5
		c-0.2-0.1-0.9-0.5-2-0.5c-0.6,0-1.5,0.1-2.2,0.7c-1,0.9-1.1,2.3-1.1,3v5.7h-4.7V437.7z"/>
	<path class="st2" d="M73.6,441.6v9.4h-4.7v-9.4h-1.5v-3.9h1.5v-4.4h4.7v4.4h2.7v3.9H73.6z"/>
	<path class="st2" d="M78.1,429.3h4.7v10c0.4-0.4,0.9-1,1.5-1.3c0.9-0.5,1.9-0.7,2.7-0.7c1.9,0,3.1,0.6,3.9,1.4
		c1.2,1.2,1.2,2.4,1.2,3.7v8.4h-4.7v-6.7c0-1-0.1-2-0.6-2.6c-0.4-0.5-1-0.6-1.5-0.6c-0.5,0-1.2,0.1-1.7,0.6
		c-0.4,0.4-0.8,1.1-0.8,2.2v7.1h-4.7V429.3z"/>
	<path class="st2" d="M109.7,450.9H105v-1.5c-1.3,1.7-3.1,1.9-4,1.9c-1.9,0-3.4-0.6-4.7-1.8c-1.3-1.3-2.1-3.2-2.1-5.3
		c0-2.3,1-4.1,2.2-5.3c1.3-1.2,3.1-1.8,4.7-1.8c1.8,0,3.1,0.8,3.9,1.7v-9.6h4.7V450.9z M104.1,446.5c0.6-0.6,1-1.5,1-2.3
		c0-0.7-0.4-1.6-0.9-2.1c-0.5-0.6-1.3-0.9-2.2-0.9c-1,0-1.7,0.4-2.1,0.9c-0.5,0.5-0.9,1.4-0.9,2.3c0,0.7,0.3,1.5,0.9,2.1
		c0.7,0.7,1.4,0.9,2.1,0.9C102.8,447.3,103.6,447,104.1,446.5z"/>
	<path class="st2" d="M123.3,437.7h4.7v13.3h-4.7v-1.5c-1.1,1.5-2.8,1.9-4.1,1.9c-1.4,0-3.2-0.4-4.8-2.1c-1.3-1.4-1.9-2.9-1.9-4.9
		c0-2.5,1-4.2,2-5.3c1.1-1.1,2.9-1.9,4.8-1.9c2.1,0,3.4,1.1,4,1.7V437.7z M118.3,442.1c-0.7,0.6-0.9,1.5-0.9,2.2
		c0,0.8,0.3,1.6,0.9,2.2c0.5,0.5,1.3,0.9,2.1,0.9c0.8,0,1.5-0.3,2.1-0.9c0.4-0.4,0.9-1.1,0.9-2.1c0-0.6-0.2-1.5-0.9-2.2
		c-0.4-0.4-1.1-0.9-2.1-0.9C119.8,441.3,119,441.5,118.3,442.1z"/>
	<path class="st2" d="M136.1,449.1l-6.4-11.5h5.5l3.5,6.8l3.4-6.8h5.4l-10.7,20.1h-5.3L136.1,449.1z"/>
	<path class="st2" d="M171,437.7v12.4c0,2-0.2,3.8-1.8,5.5c-1.7,1.7-3.9,2.1-5.8,2.1c-2.5,0-4.5-0.6-6.2-2.3
		c-0.8-0.8-1.3-1.6-1.5-2.8h5.3c0.2,0.5,0.7,1.4,2.2,1.4c0.7,0,1.5-0.1,2.1-0.7c0.8-0.7,1-1.7,1-2.5v-1.3c-1.5,1.6-2.9,1.8-4,1.8
		c-2.4,0-4-1-4.9-1.9c-1.2-1.2-1.8-3-1.8-4.8c0-2.1,0.8-4,2-5.2c1.3-1.3,3.1-2,4.8-2c0.8,0,2.6,0.2,3.9,1.8v-1.4H171z M161.4,442.1
		c-0.7,0.7-0.9,1.5-0.9,2.1c0,0.8,0.3,1.6,0.9,2.2c0.6,0.6,1.4,0.9,2.1,0.9c0.7,0,1.6-0.3,2.1-0.9c0.6-0.6,0.9-1.5,0.9-2.1
		c0-0.7-0.4-1.6-1-2.2c-0.5-0.5-1.3-0.9-2.1-0.9C162.7,441.2,162,441.5,161.4,442.1z"/>
	<path class="st2" d="M176.7,429.5c1.5,0,2.7,1.2,2.7,2.7c0,1.5-1.2,2.7-2.7,2.7c-1.5,0-2.7-1.2-2.7-2.7
		C174,430.7,175.2,429.5,176.7,429.5z M179.1,437.7v13.3h-4.7v-13.3H179.1z"/>
	<path class="st2" d="M187.4,441.6v9.4h-4.7v-9.4H181v-3.9h1.7v-2.2c0-1.4,0.1-2.9,1.2-4.4c1.2-1.6,3-2.1,4.6-2.1
		c0.9,0,1.6,0.2,2.3,0.4v4.1c-0.7-0.4-1.2-0.4-1.5-0.4c-0.7,0-1.1,0.3-1.3,0.5c-0.5,0.6-0.5,1.6-0.5,2.2v1.9h3.3v3.9H187.4z"/>
	<path class="st2" d="M198.4,441.6v9.4h-4.7v-9.4h-1.5v-3.9h1.5v-4.4h4.7v4.4h2.7v3.9H198.4z"/>
	<path class="st2" d="M203.7,446.5c0.6,0.4,1.2,0.8,1.9,1c0.6,0.2,1.3,0.3,1.8,0.3c0.4,0,0.9-0.1,1.2-0.4c0.2-0.2,0.2-0.4,0.2-0.6
		c0-0.2,0-0.4-0.2-0.6c-0.3-0.3-0.8-0.4-1.2-0.5l-1.2-0.3c-0.7-0.1-1.6-0.4-2.3-1.2c-0.5-0.5-0.9-1.3-0.9-2.3c0-1.3,0.5-2.5,1.2-3.2
		c1-1,2.8-1.6,4.7-1.6c2,0,3.5,0.5,4.2,0.9l-1.6,3c-0.7-0.3-1.6-0.7-2.5-0.7c-0.5,0-0.8,0.1-1.1,0.3c-0.3,0.1-0.4,0.4-0.4,0.7
		c0,0.4,0.3,0.6,0.6,0.7c0.4,0.2,0.8,0.2,1.6,0.4l0.9,0.2c0.6,0.2,1.6,0.7,2,1c0.7,0.6,1,1.7,1,2.6c0,1.6-0.7,2.7-1.3,3.3
		c-1.5,1.5-3.8,1.7-4.9,1.7c-1.2,0-3.1-0.1-5.3-1.5L203.7,446.5z"/>
</g>
<g>
	<path class="st4" d="M289.4,192.7h-6.2v3.3h5.6v4.4h-5.6v7.8h-5.1v-19.8h11.3V192.7z"/>
	<path class="st4" d="M292,194.9h4.7v2.2c0.5-0.9,1.2-1.5,1.9-1.8c0.7-0.4,1.6-0.5,2.5-0.5c0.1,0,0.3,0,1,0.1v4.5
		c-0.2-0.1-0.9-0.5-2-0.5c-0.6,0-1.5,0.1-2.2,0.7c-1,0.9-1.1,2.3-1.1,3v5.7H292V194.9z"/>
	<path class="st4" d="M318.2,202.4h-9.9c0,0.7,0.3,1.7,0.8,2.2c0.3,0.3,0.9,0.7,2,0.7c0.1,0,1,0,1.5-0.4c0.3-0.2,0.6-0.5,0.8-0.9
		h4.5c-0.2,0.7-0.6,1.8-1.6,2.7c-1,1-2.5,1.8-5.4,1.8c-1.8,0-3.9-0.4-5.5-2c-0.9-0.9-2-2.5-2-5c0-2.2,0.8-4,2-5.1
		c1.1-1.1,2.8-1.9,5.4-1.9c1.5,0,3.5,0.3,5.1,1.8c1.9,1.8,2.1,4.1,2.1,5.6V202.4z M313.9,199.7c-0.1-0.5-0.4-1.1-0.8-1.4
		c-0.6-0.6-1.5-0.7-2-0.7c-0.8,0-1.4,0.2-1.9,0.7c-0.3,0.4-0.6,0.8-0.7,1.4H313.9z"/>
	<path class="st4" d="M335,202.4h-9.9c0,0.7,0.3,1.7,0.8,2.2c0.3,0.3,0.9,0.7,2,0.7c0.1,0,1,0,1.5-0.4c0.3-0.2,0.6-0.5,0.8-0.9h4.5
		c-0.2,0.7-0.6,1.8-1.6,2.7c-1,1-2.5,1.8-5.4,1.8c-1.8,0-3.9-0.4-5.5-2c-0.9-0.9-2-2.5-2-5c0-2.2,0.8-4,2-5.1
		c1.1-1.1,2.8-1.9,5.4-1.9c1.5,0,3.5,0.3,5.1,1.8c1.9,1.8,2.1,4.1,2.1,5.6V202.4z M330.7,199.7c-0.1-0.5-0.4-1.1-0.8-1.4
		c-0.6-0.6-1.5-0.7-2-0.7c-0.8,0-1.4,0.2-1.9,0.7c-0.3,0.4-0.6,0.8-0.7,1.4H330.7z"/>
	<path class="st4" d="M345.5,203.8c0.6,0.4,1.2,0.8,1.9,1c0.6,0.2,1.3,0.3,1.8,0.3c0.4,0,0.9-0.1,1.2-0.4c0.2-0.2,0.2-0.4,0.2-0.6
		c0-0.2,0-0.4-0.2-0.6c-0.3-0.3-0.8-0.4-1.2-0.5l-1.2-0.3c-0.7-0.1-1.6-0.4-2.3-1.2c-0.5-0.5-0.9-1.3-0.9-2.3c0-1.3,0.5-2.5,1.2-3.2
		c1-1,2.8-1.6,4.7-1.6c2,0,3.5,0.5,4.2,0.9l-1.6,3c-0.7-0.3-1.6-0.7-2.5-0.7c-0.5,0-0.8,0.1-1.1,0.3c-0.3,0.1-0.4,0.4-0.4,0.7
		c0,0.4,0.3,0.6,0.6,0.7c0.4,0.2,0.8,0.2,1.6,0.4l0.9,0.2c0.6,0.2,1.6,0.7,2,1c0.7,0.6,1,1.7,1,2.6c0,1.6-0.7,2.7-1.3,3.3
		c-1.5,1.5-3.8,1.7-4.9,1.7c-1.2,0-3.1-0.1-5.3-1.5L345.5,203.8z"/>
	<path class="st4" d="M357.8,186.5h4.7v10c0.4-0.4,0.9-1,1.5-1.3c0.9-0.5,1.9-0.7,2.7-0.7c1.9,0,3.1,0.6,3.9,1.4
		c1.2,1.2,1.2,2.4,1.2,3.7v8.4h-4.7v-6.7c0-1-0.1-2-0.6-2.6c-0.4-0.5-1-0.6-1.5-0.6c-0.5,0-1.2,0.1-1.7,0.6
		c-0.4,0.4-0.8,1.1-0.8,2.2v7.1h-4.7V186.5z"/>
	<path class="st4" d="M376.8,186.7c1.5,0,2.7,1.2,2.7,2.7c0,1.5-1.2,2.7-2.7,2.7c-1.5,0-2.7-1.2-2.7-2.7
		C374.2,187.9,375.4,186.7,376.8,186.7z M379.2,194.9v13.3h-4.7v-13.3H379.2z"/>
	<path class="st4" d="M387.2,215h-4.7v-20.1h4.7v1.5c0.8-1,2.1-1.9,4.1-1.9c2,0,3.6,0.9,4.7,1.9c1.1,1.1,2,2.8,2,5.1
		c0,2.2-0.9,4-2.1,5.3c-1.5,1.5-3.2,1.8-4.5,1.8c-0.9,0-2.6-0.2-4.1-1.7V215z M388,199.4c-0.6,0.6-0.9,1.5-0.9,2.2
		c0,0.8,0.4,1.6,0.9,2.1c0.6,0.6,1.3,0.9,2.1,0.9c0.8,0,1.6-0.3,2.1-0.9c0.5-0.5,0.9-1.3,0.9-2.1c0-0.7-0.3-1.6-0.9-2.2
		c-0.5-0.6-1.3-0.9-2.1-0.9C389.3,198.5,388.5,198.8,388,199.4z"/>
	<path class="st4" d="M405.5,215h-4.7v-20.1h4.7v1.5c0.8-1,2.1-1.9,4.1-1.9c2,0,3.6,0.9,4.7,1.9c1.1,1.1,2,2.8,2,5.1
		c0,2.2-0.9,4-2.1,5.3c-1.5,1.5-3.2,1.8-4.5,1.8c-0.9,0-2.6-0.2-4.1-1.7V215z M406.2,199.4c-0.6,0.6-0.9,1.5-0.9,2.2
		c0,0.8,0.4,1.6,0.9,2.1c0.6,0.6,1.3,0.9,2.1,0.9c0.8,0,1.6-0.3,2.1-0.9c0.5-0.5,0.9-1.3,0.9-2.1c0-0.7-0.3-1.6-0.9-2.2
		c-0.5-0.6-1.3-0.9-2.1-0.9C407.6,198.5,406.8,198.8,406.2,199.4z"/>
	<path class="st4" d="M421.4,186.7c1.5,0,2.7,1.2,2.7,2.7c0,1.5-1.2,2.7-2.7,2.7c-1.5,0-2.7-1.2-2.7-2.7
		C418.7,187.9,419.9,186.7,421.4,186.7z M423.8,194.9v13.3H419v-13.3H423.8z"/>
	<path class="st4" d="M427,194.9h4.7v1.7c1.3-1.7,3.1-2,4.2-2c1.4,0,2.8,0.3,3.9,1.4c1.1,1.1,1.2,2.3,1.2,3.7v8.4h-4.7v-6.7
		c0-0.8,0-1.9-0.6-2.6c-0.4-0.5-1-0.6-1.5-0.6c-0.7,0-1.4,0.3-1.8,0.6c-0.5,0.4-0.8,1.3-0.8,2.1v7.1H427V194.9z"/>
	<path class="st4" d="M459.3,194.9v12.4c0,2-0.2,3.8-1.8,5.5c-1.7,1.7-3.9,2.1-5.8,2.1c-2.5,0-4.5-0.6-6.2-2.3
		c-0.8-0.8-1.3-1.6-1.5-2.8h5.3c0.2,0.5,0.7,1.4,2.2,1.4c0.7,0,1.5-0.1,2.1-0.7c0.8-0.7,1-1.7,1-2.5v-1.3c-1.5,1.6-2.9,1.8-4,1.8
		c-2.4,0-4-1-4.9-1.9c-1.2-1.2-1.8-3-1.8-4.8c0-2.1,0.8-4,2-5.2c1.3-1.3,3.1-2,4.8-2c0.8,0,2.6,0.2,3.9,1.8v-1.4H459.3z
		 M449.6,199.3c-0.7,0.7-0.9,1.5-0.9,2.1c0,0.8,0.3,1.6,0.9,2.2c0.6,0.6,1.4,0.9,2.1,0.9c0.7,0,1.6-0.3,2.1-0.9
		c0.6-0.6,0.9-1.5,0.9-2.1c0-0.7-0.4-1.6-1-2.2c-0.5-0.5-1.3-0.9-2.1-0.9S450.2,198.7,449.6,199.3z"/>
	<path class="st4" d="M469.2,189.9l-0.3-3.3h3.3l-0.3,3.3l3.1-1.3l1,3.1l-3.3,0.8l2.2,2.5l-2.6,1.9l-1.8-2.8l-1.7,2.8l-2.6-1.9
		l2.2-2.5l-3.3-0.8l1-3.1L469.2,189.9z"/>
</g>
<g>
	<path class="st5" d="M278.4,436.4h-6.1v3.3h5.8v4.4h-5.8v3.4h6.1v4.4h-11.2V432h11.2V436.4z"/>
	<path class="st5" d="M286.2,444.6l-5.4-6.1h6.2l2.3,2.7l2.3-2.7h6.1l-5.5,6.1l6.6,7.2h-6.3l-3.4-3.9l-3.4,3.9h-6.3L286.2,444.6z"/>
	<path class="st5" d="M310,451.5c-1.3,0.6-2.3,0.7-3.3,0.7c-2.6,0-4.3-1.1-5.2-2c-1.2-1.2-2-3-2-5c0-2,0.8-3.8,2.1-5.1
		c1.2-1.2,3.1-2,5.3-2c0.8,0,1.9,0.1,3.1,0.7v4c-0.6-0.4-1.5-0.9-2.5-0.9c-1.1,0-1.8,0.4-2.3,0.9c-0.7,0.7-0.9,1.5-0.9,2.3
		c0,0.7,0.3,1.6,0.8,2.2c0.4,0.5,1.2,1,2.4,1c0.7,0,1.6-0.1,2.4-0.9V451.5z"/>
	<path class="st5" d="M317.4,430.2v21.6h-4.7v-21.6H317.4z"/>
	<path class="st5" d="M325.4,438.6v7.4c0,0.5,0.1,1.4,0.7,1.9c0.5,0.4,1.1,0.5,1.7,0.5c0.6,0,1.2-0.1,1.7-0.6
		c0.6-0.6,0.7-1.3,0.7-1.9v-7.4h4.7v8.3c0,1.1-0.1,2.3-1.3,3.6c-1.6,1.7-3.9,1.9-5.7,1.9c-2,0-4.4-0.2-6-1.9c-1-1.1-1.2-2.3-1.2-3.5
		v-8.3H325.4z"/>
	<path class="st5" d="M339,447.4c0.6,0.4,1.2,0.8,1.9,1c0.6,0.2,1.3,0.3,1.8,0.3c0.4,0,0.9-0.1,1.2-0.4c0.2-0.2,0.2-0.4,0.2-0.6
		c0-0.2,0-0.4-0.2-0.6c-0.3-0.3-0.8-0.4-1.2-0.5l-1.2-0.3c-0.7-0.1-1.6-0.4-2.3-1.2c-0.5-0.5-0.9-1.3-0.9-2.3c0-1.3,0.5-2.5,1.2-3.2
		c1-1,2.8-1.6,4.7-1.6c2,0,3.5,0.5,4.2,0.9l-1.6,3c-0.7-0.3-1.6-0.7-2.5-0.7c-0.5,0-0.8,0.1-1.1,0.3c-0.3,0.1-0.4,0.4-0.4,0.7
		c0,0.4,0.3,0.6,0.6,0.7c0.4,0.2,0.8,0.2,1.6,0.4l0.9,0.2c0.6,0.2,1.6,0.7,2,1c0.7,0.6,1,1.7,1,2.6c0,1.6-0.7,2.7-1.3,3.3
		c-1.5,1.5-3.8,1.7-4.9,1.7c-1.2,0-3.1-0.1-5.3-1.5L339,447.4z"/>
	<path class="st5" d="M353.7,430.4c1.5,0,2.7,1.2,2.7,2.7c0,1.5-1.2,2.7-2.7,2.7c-1.5,0-2.7-1.2-2.7-2.7
		C351,431.5,352.2,430.4,353.7,430.4z M356.1,438.6v13.3h-4.7v-13.3H356.1z"/>
	<path class="st5" d="M363,438.6l3.2,6.8l3.2-6.8h5.3l-6.9,13.3h-3.2l-6.9-13.3H363z"/>
	<path class="st5" d="M389.6,446.1h-9.9c0,0.7,0.3,1.7,0.8,2.2c0.3,0.3,0.9,0.7,2,0.7c0.1,0,1,0,1.5-0.4c0.3-0.2,0.6-0.5,0.8-0.9
		h4.5c-0.2,0.7-0.6,1.8-1.6,2.7c-1,1-2.5,1.8-5.4,1.8c-1.8,0-3.9-0.4-5.5-2c-0.9-0.9-2-2.5-2-5c0-2.2,0.8-4,2-5.1
		c1.1-1.1,2.8-1.9,5.4-1.9c1.5,0,3.5,0.3,5.1,1.8c1.9,1.8,2.1,4.1,2.1,5.6V446.1z M385.3,443.3c-0.1-0.5-0.4-1.1-0.8-1.4
		c-0.6-0.6-1.5-0.7-2-0.7c-0.8,0-1.4,0.2-1.9,0.7c-0.3,0.4-0.6,0.8-0.7,1.4H385.3z"/>
	<path class="st5" d="M401.7,430.4c1.5,0,2.7,1.2,2.7,2.7c0,1.5-1.2,2.7-2.7,2.7c-1.5,0-2.7-1.2-2.7-2.7
		C399,431.5,400.2,430.4,401.7,430.4z M404,438.6v13.3h-4.7v-13.3H404z"/>
	<path class="st5" d="M407.3,438.6h4.7v1.7c1.3-1.7,3.1-2,4.2-2c1.4,0,2.8,0.3,3.9,1.4c1.1,1.1,1.2,2.3,1.2,3.7v8.4h-4.7v-6.7
		c0-0.8,0-1.9-0.6-2.6c-0.4-0.5-1-0.6-1.5-0.6c-0.7,0-1.4,0.3-1.8,0.6c-0.5,0.4-0.8,1.3-0.8,2.1v7.1h-4.7V438.6z"/>
	<path class="st5" d="M428.3,438.6l3.2,6.8l3.2-6.8h5.3l-6.9,13.3h-3.2l-6.9-13.3H428.3z"/>
	<path class="st5" d="M444,430.4c1.5,0,2.7,1.2,2.7,2.7c0,1.5-1.2,2.7-2.7,2.7c-1.5,0-2.7-1.2-2.7-2.7
		C441.3,431.5,442.5,430.4,444,430.4z M446.4,438.6v13.3h-4.7v-13.3H446.4z"/>
	<path class="st5" d="M454.9,442.4v9.4h-4.7v-9.4h-1.5v-3.9h1.5v-4.4h4.7v4.4h2.7v3.9H454.9z"/>
	<path class="st5" d="M473.4,446.1h-9.9c0,0.7,0.3,1.7,0.8,2.2c0.3,0.3,0.9,0.7,2,0.7c0.1,0,1,0,1.5-0.4c0.3-0.2,0.6-0.5,0.8-0.9
		h4.5c-0.2,0.7-0.6,1.8-1.6,2.7c-1,1-2.5,1.8-5.4,1.8c-1.8,0-3.9-0.4-5.5-2c-0.9-0.9-2-2.5-2-5c0-2.2,0.8-4,2-5.1
		c1.1-1.1,2.8-1.9,5.4-1.9c1.5,0,3.5,0.3,5.1,1.8c1.9,1.8,2.1,4.1,2.1,5.6V446.1z M469.1,443.3c-0.1-0.5-0.4-1.1-0.8-1.4
		c-0.6-0.6-1.5-0.7-2-0.7c-0.8,0-1.4,0.2-1.9,0.7c-0.3,0.4-0.6,0.8-0.7,1.4H469.1z"/>
	<path class="st5" d="M477,447.4c0.6,0.4,1.2,0.8,1.9,1c0.6,0.2,1.3,0.3,1.8,0.3c0.4,0,0.9-0.1,1.2-0.4c0.2-0.2,0.2-0.4,0.2-0.6
		c0-0.2,0-0.4-0.2-0.6c-0.3-0.3-0.8-0.4-1.2-0.5l-1.2-0.3c-0.7-0.1-1.6-0.4-2.3-1.2c-0.5-0.5-0.9-1.3-0.9-2.3c0-1.3,0.5-2.5,1.2-3.2
		c1-1,2.8-1.6,4.7-1.6c2,0,3.5,0.5,4.2,0.9l-1.6,3c-0.7-0.3-1.6-0.7-2.5-0.7c-0.5,0-0.8,0.1-1.1,0.3c-0.3,0.1-0.4,0.4-0.4,0.7
		c0,0.4,0.3,0.6,0.6,0.7c0.4,0.2,0.8,0.2,1.6,0.4l0.9,0.2c0.6,0.2,1.6,0.7,2,1c0.7,0.6,1,1.7,1,2.6c0,1.6-0.7,2.7-1.3,3.3
		c-1.5,1.5-3.8,1.7-4.9,1.7c-1.2,0-3.1-0.1-5.3-1.5L477,447.4z"/>
</g>
<g>
	<path class="st4" d="M440.3,61.9C440.3,61.9,440.3,61.9,440.3,61.9C440.3,61.9,440.3,61.9,440.3,61.9c0-0.1,0-0.1,0-0.1
		c0-0.1,0-0.1-0.1-0.2c0,0,0-0.1,0-0.1c0,0,0,0,0-0.1c0,0,0,0,0-0.1c0,0,0,0,0,0c0,0,0,0,0,0c0,0-0.1-0.1-0.1-0.1
		c0,0-0.1-0.1-0.1-0.1c0,0,0,0,0,0c0,0,0,0,0,0c0,0,0,0,0,0c0,0-0.1,0-0.1,0c-0.1,0-0.1,0-0.1,0c0,0,0,0-0.1,0c0,0,0,0,0,0
		c0,0-0.1,0-0.1,0c0,0-0.1,0-0.1,0c0,0,0,0-0.1,0c0,0,0,0,0,0l-90.1,41.7c0,0,0,0,0,0c-0.1,0-0.1,0.1-0.2,0.1c0,0-0.1,0.1-0.1,0.1
		c0,0.1-0.1,0.1-0.1,0.2c0,0.1-0.1,0.2-0.1,0.2c0,0,0,0,0,0c0,0.1,0,0.1,0,0.2c0,0.1,0,0.2,0,0.3c0,0.1,0,0.2,0,0.3
		c0,0.1,0,0.1,0,0.2c0,0,0,0,0,0c0,0.1,0,0.1,0.1,0.2c0,0.1,0.1,0.2,0.1,0.2c0,0,0.1,0.1,0.1,0.1c0.1,0.1,0.1,0.1,0.2,0.2
		c0,0,0,0,0.1,0.1l28.7,15.9l5.7,17.7l0,0l0,0c0,0,0,0,0,0.1c0,0.1,0,0.1,0.1,0.2c0,0.1,0.1,0.1,0.1,0.2c0,0,0,0,0,0c0,0,0,0,0,0
		c0,0,0.1,0.1,0.1,0.1c0.1,0.1,0.1,0.1,0.2,0.1c0,0,0.1,0,0.1,0c0,0,0,0,0,0c0,0,0,0,0,0c0.1,0,0.2,0.1,0.4,0c0,0,0,0,0,0l0,0
		c0,0,0,0,0,0c0.1,0,0.2,0,0.3-0.1c0,0,0,0,0,0c0,0,0,0,0,0c0,0,0.1,0,0.1-0.1c0.1-0.1,0.1-0.1,0.2-0.2c0,0,0,0,0,0l0,0c0,0,0,0,0,0
		l7.3-10.1l23.4,12.9c0.1,0,0.2,0.1,0.2,0.1c0,0,0,0,0,0c0.1,0,0.2,0,0.3,0c0.3-0.1,0.6-0.4,0.8-0.8l0,0l23.4-78.5c0,0,0-0.1,0-0.1
		c0-0.1,0-0.1,0-0.2c0,0,0,0,0-0.1c0,0,0,0,0-0.1c0-0.1,0-0.1,0-0.2C440.3,62.1,440.3,62,440.3,61.9z M390.2,128.1l-4.1,5.7l1.4-7.2
		L390.2,128.1z M379.5,120.6l45.6-43.2l-39,46.4c0,0,0,0,0,0c0,0,0,0.1-0.1,0.1c0,0.1-0.1,0.1-0.1,0.2c0,0.1-0.1,0.1-0.1,0.2
		c0,0,0,0,0,0c0,0,0,0.1,0,0.1c0,0,0,0.1,0,0.1l-1.9,9.8L379.5,120.6z"/>
	<path class="st4" d="M394.2,114.2"/>
	<path class="st4" d="M379,137.9"/>
	<g>
		<path class="st4" d="M319.2,137.4c-0.8,0-1.6-0.3-2.1-1c-1.8-2.1-2.8-3.5-2.9-3.5c-0.9-1.3-0.6-3,0.6-4c1.3-0.9,3-0.6,4,0.6
			c0,0,0.9,1.2,2.5,3.1c1,1.2,0.9,3-0.2,4C320.6,137.2,319.9,137.4,319.2,137.4z"/>
		<path class="st4" d="M356.4,156.3c-1.5,0-2.8-1.2-2.8-2.8c0-1.6,1.2-2.9,2.8-2.9c2.6-0.1,5.3-0.4,7.9-1.1c1.5-0.4,3.1,0.5,3.5,2
			c0.4,1.5-0.5,3.1-2,3.5C362.6,155.8,359.6,156.2,356.4,156.3C356.5,156.3,356.5,156.3,356.4,156.3z M347.9,155.5
			c-0.2,0-0.4,0-0.6-0.1c-2.9-0.6-5.8-1.6-8.7-2.8c-1.4-0.6-2.1-2.3-1.5-3.7c0.6-1.4,2.3-2.1,3.7-1.5c2.5,1.1,5.1,1.9,7.6,2.5
			c1.5,0.3,2.5,1.8,2.2,3.4C350.4,154.6,349.2,155.5,347.9,155.5z M332.2,148.7c-0.5,0-1.1-0.1-1.6-0.5c-2.4-1.6-4.8-3.4-7.2-5.5
			c-1.2-1-1.3-2.8-0.3-4c1-1.2,2.8-1.3,4-0.3c2.1,1.9,4.3,3.5,6.5,5c1.3,0.9,1.7,2.6,0.8,3.9C334,148.2,333.1,148.7,332.2,148.7z"/>
		<path class="st4" d="M373,152c-1,0-2-0.6-2.5-1.6c-0.7-1.4-0.1-3.1,1.3-3.8c1.2-0.6,2.3-1.2,3.5-1.9c1.3-0.8,3.1-0.4,3.9,1
			c0.8,1.3,0.4,3.1-1,3.9c-1.3,0.8-2.6,1.5-3.9,2.2C373.9,151.9,373.5,152,373,152z"/>
	</g>
</g>
<g>
	<path class="st5" d="M424.7,330l-45.6-26.8c-1.4-0.8-3-0.8-4.4,0c-15.6,9.1-41.4,24.1-45.7,26.5l47.7,30.7L424.7,330z"/>
	<g>
		<path class="st3" d="M411.6,361.9h-68.5c-0.4,0-0.7-0.3-0.7-0.7v-45.4c0-0.4,0.3-0.7,0.7-0.7h68.5c0.4,0,0.7,0.3,0.7,0.7v45.4
			C412.2,361.6,411.9,361.9,411.6,361.9z"/>
		<path class="st5" d="M410.6,363.2h-66.5c-1.6,0-2.9-1.3-2.9-2.9v-43.5c0-1.6,1.3-2.9,2.9-2.9h66.5c1.6,0,2.9,1.3,2.9,2.9v43.5
			C413.4,361.9,412.2,363.2,410.6,363.2z M344.1,316.4c-0.2,0-0.4,0.2-0.4,0.4v43.5c0,0.2,0.2,0.4,0.4,0.4h66.5
			c0.2,0,0.4-0.2,0.4-0.4v-43.5c0-0.2-0.2-0.4-0.4-0.4H344.1z"/>
	</g>
	<path class="st5" d="M368.9,341.8v-16l10.1,0c3.1,0,5.4,1.2,5.4,4.2c0,1.8-1.1,2.9-2.8,3.3v0.1c1.9,0.5,3.3,1.6,3.3,3.9
		c0,2.4-1.7,4.5-5.8,4.5H368.9z M373.2,331.8h3.9c2.5,0,3.1-0.2,3.1-1.4c0-1.2-0.6-1.4-3.1-1.4h-3.9V331.8z M373.2,338.6h4.9
		c2,0,2.8-0.5,2.8-1.8c0-1.3-0.8-1.8-2.8-1.8h-4.9V338.6z"/>
	<path class="st5" d="M385.7,344.6l-1.2,1.9c-0.4,0.6-0.9,1-1.6,1l-14.8,0l0,0l1.2-1.8c0.4-0.6,0.8-1.1,1.6-1.1H385.7z"/>
	<polygon class="st6" points="327.7,330.4 327.7,331.2 327.7,330.4 	"/>
	<g>
		<polygon class="st5" points="425.4,332 378.9,361.5 383.4,364.4 426.3,392.1 426.3,331.4 		"/>
		<polygon class="st5" points="374.3,361.4 327.7,331.4 327.7,331.4 327.7,391 369.1,364.8 		"/>
		<polygon class="st5" points="376.6,362.9 373.9,364.6 328.7,393.3 423.7,393.3 379,364.5 		"/>
	</g>
	<path class="st3" d="M379,364.5l44.6,28.8h2.7v-1.2l-43-27.7C381.9,364.4,380.4,364.4,379,364.5z"/>
	<path class="st3" d="M369.1,364.8L327.7,391v2.3h1l45.1-28.6C372.2,364.7,370.6,364.7,369.1,364.8z"/>
	<path class="st3" d="M327.7,330.4l0.7-0.3c0.1,0,0.3-0.2,0.6-0.3"/>
	<path class="st3" d="M327.7,331.3L327.7,331.3l0,0.1l0,0C327.7,331.3,327.7,331.3,327.7,331.3z"/>
	<path class="st3" d="M327.7,331.4l46.6,30.1l-5.2,3.3c1.5,0,3.1-0.1,4.8-0.1l2.7-1.7l2.4,1.6c1.4,0,2.9-0.1,4.3-0.1l-4.5-2.9
		l47.5-30.1l-0.8-0.8l-0.9-0.5l-48,30.5L329,329.8c-0.3,0.2-0.5,0.3-0.6,0.3l-0.7,0.3C327.7,330.4,327.7,331.3,327.7,331.4z"/>
</g>
</svg>
