<?xml version="1.0" encoding="utf-8"?>
<!-- Generator: Adobe Illustrator 23.0.1, SVG Export Plug-In . SVG Version: 6.00 Build 0)  -->
<svg version="1.0" id="Layer_1" xmlns="http://www.w3.org/2000/svg" xmlns:xlink="http://www.w3.org/1999/xlink" x="0px" y="0px"
	 viewBox="0 0 51.38 52.19" style="enable-background:new 0 0 51.38 52.19;" xml:space="preserve">
<path d="M28.54,1.63c-11.78,0-21.36,9.58-21.36,21.36c0,5.4,2.03,10.32,5.35,14.09l-9.87,9.87c-0.78,0.78-0.78,2.05,0,2.83
	c0.39,0.39,0.9,0.59,1.41,0.59s1.02-0.2,1.41-0.59l9.95-9.95c3.62,2.83,8.16,4.53,13.1,4.53c11.78,0,21.36-9.58,21.36-21.36
	S40.32,1.63,28.54,1.63z M28.54,40.35c-9.57,0-17.36-7.79-17.36-17.36S18.97,5.63,28.54,5.63c9.57,0,17.36,7.79,17.36,17.36
	S38.12,40.35,28.54,40.35z"/>
</svg>
