<?xml version="1.0" encoding="utf-8"?>
<!-- Generator: Adobe Illustrator 23.0.1, SVG Export Plug-In . SVG Version: 6.00 Build 0)  -->
<svg version="1.1" id="Layer_1" xmlns="http://www.w3.org/2000/svg" xmlns:xlink="http://www.w3.org/1999/xlink" x="0px" y="0px"
	 viewBox="0 0 51.4 52.2" style="enable-background:new 0 0 51.4 52.2;" xml:space="preserve">
<style type="text/css">
	.st0{fill:#FFFFFF;}
</style>
<path class="st0" d="M28.5,1.6C16.8,1.6,7.2,11.2,7.2,23c0,5.4,2,10.3,5.4,14.1L2.7,47c-0.8,0.8-0.8,2,0,2.8
	c0.4,0.4,0.9,0.6,1.4,0.6s1-0.2,1.4-0.6l9.9-10c3.6,2.8,8.2,4.5,13.1,4.5c11.8,0,21.4-9.6,21.4-21.4S40.3,1.6,28.5,1.6z M28.5,40.3
	c-9.6,0-17.4-7.8-17.4-17.4S19,5.6,28.5,5.6S45.9,13.4,45.9,23S38.1,40.3,28.5,40.3z"/>
</svg>
