<?xml version="1.0" encoding="utf-8"?>
<!-- Generator: Adobe Illustrator 23.0.1, SVG Export Plug-In . SVG Version: 6.00 Build 0)  -->
<svg version="1.0" id="Layer_1" xmlns="http://www.w3.org/2000/svg" xmlns:xlink="http://www.w3.org/1999/xlink" x="0px" y="0px"
	 viewBox="0 0 52.17 45.32" style="enable-background:new 0 0 52.17 45.32;" xml:space="preserve">
<g>
	<path d="M25.98,44.45l-1.08-0.69C-2.07,26.43,0.73,13,1.07,11.73C3.48,1.92,11.6,1.42,13.21,1.42l0.27,0
		c5.86,0,10.49,3.47,12.53,5.43c2.03-1.92,6.57-5.43,12.6-5.43l0.1,0h0c1.64,0,9.76,0.5,12.2,10.35c0.35,1.3,3.16,14.64-23.85,31.99
		L25.98,44.45z M13.19,5.42c-1.5,0-6.59,0.53-8.24,7.29l-0.03,0.1C4.9,12.88,2.31,24.1,25.98,39.69
		c23.63-15.56,21.1-26.77,21.07-26.88c-1.69-6.86-6.78-7.39-8.31-7.39l-0.1,0c-5.66,0-9.92,4.31-10.5,4.92l-0.49,0.78l-3.29,0.05
		l-0.55-0.84c-0.37-0.41-4.62-4.91-10.35-4.91L13.19,5.42z"/>
</g>
</svg>
