<?xml version="1.0" encoding="utf-8"?>
<!-- Generator: Adobe Illustrator 23.0.1, SVG Export Plug-In . SVG Version: 6.00 Build 0)  -->
<svg version="1.1" id="Layer_1" xmlns="http://www.w3.org/2000/svg" xmlns:xlink="http://www.w3.org/1999/xlink" x="0px" y="0px"
	 viewBox="0 0 52.2 45.3" style="enable-background:new 0 0 52.2 45.3;" xml:space="preserve">
<style type="text/css">
	.st0{fill:#FFFFFF;}
</style>
<g>
	<path class="st0" d="M26,44.5l-1.1-0.7C-2.1,26.4,0.7,13,1.1,11.7C3.5,1.9,11.6,1.4,13.2,1.4h0.3C19.3,1.4,24,4.9,26,6.8
		c2-1.9,6.6-5.4,12.6-5.4h0.1l0,0c1.6,0,9.8,0.5,12.2,10.4c0.3,1.3,3.2,14.6-23.9,32L26,44.5z M13.2,5.4c-1.5,0-6.6,0.5-8.2,7.3
		l0,0.1c0,0.1-2.6,11.3,21.1,26.9C49.6,24.1,47.1,12.9,47,12.8c-1.7-6.9-6.8-7.4-8.3-7.4h-0.1c-5.7,0-9.9,4.3-10.5,4.9l-0.5,0.8
		l-3.3,0.1l-0.5-0.8c-0.4-0.4-4.6-4.9-10.4-4.9H13.2z"/>
</g>
</svg>
