<?xml version="1.0" encoding="utf-8"?>
<!-- Generator: Adobe Illustrator 23.0.1, SVG Export Plug-In . SVG Version: 6.00 Build 0)  -->
<svg version="1.0" id="Isolation_Mode" xmlns="http://www.w3.org/2000/svg" xmlns:xlink="http://www.w3.org/1999/xlink" x="0px"
	 y="0px" viewBox="0 0 112.04 112.04" style="enable-background:new 0 0 112.04 112.04;" xml:space="preserve">
<style type="text/css">
	.st0{fill:#6081C4;}
	.st1{fill:#FFFFFF;}
</style>
<g>
	
		<ellipse id="XMLID_21_" transform="matrix(0.9999 -0.0144 0.0144 0.9999 -0.8006 0.8122)" class="st0" cx="56.02" cy="56.02" rx="56.02" ry="56.02"/>
	<path id="XMLID_19_" class="st1" d="M60.96,42.91V37.6c0-2.59,1.72-3.19,2.93-3.19c1.21,0,7.44,0,7.44,0V23.04L61.08,23
		c-11.38,0-13.97,8.48-13.97,13.91v6h-6.58v8.02v5.25h6.64c0,15.04,0,33.18,0,33.18h13.27c0,0,0-18.32,0-33.18h9.85l0.48-5.21
		l0.73-8.06H60.96z"/>
</g>
</svg>
