<?xml version="1.0" encoding="utf-8"?>
<!-- Generator: Adobe Illustrator 23.0.1, SVG Export Plug-In . SVG Version: 6.00 Build 0)  -->
<svg version="1.0" id="Isolation_Mode" xmlns="http://www.w3.org/2000/svg" xmlns:xlink="http://www.w3.org/1999/xlink" x="0px"
	 y="0px" viewBox="0 0 112.04 112.04" style="enable-background:new 0 0 112.04 112.04;" xml:space="preserve">
<style type="text/css">
	.st0{fill:#E62B33;}
	.st1{fill:#FFFFFF;}
</style>
<g>
	<path id="XMLID_30_" class="st0" d="M112.04,56.02c0,30.94-25.08,56.02-56.02,56.02C25.08,112.04,0,86.96,0,56.02
		C0,25.08,25.08,0,56.02,0C86.96,0,112.04,25.08,112.04,56.02z"/>
	<g>
		<path id="XMLID_27_" class="st1" d="M79.84,54.96c-0.41,0-0.8,0-1.21,0c0-0.08,0-0.16,0-0.24c0-0.32,0-0.58,0-0.84
			c0-1.54,0.02-3.08-0.01-4.62c-0.01-0.25-0.27-0.71-0.42-0.71c-1.41-0.06-2.81-0.03-4.3-0.03c0,1.84,0,3.6,0,5.38
			c0,0.35,0,0.7,0,1.05c-2.15,0-4.23,0-6.45,0c0,0.48-0.01,0.81,0,1.13c0.05,1.17,0.1,2.33,0.16,3.49c1.14,0.04,2.27,0.09,3.41,0.12
			c0.95,0.02,1.9,0,2.95,0c0,2.22,0,4.28,0,6.34c1.58,0,3.05,0,4.65,0c0-2.1,0-4.17,0-6.36c2.19,0,4.25,0,6.36,0
			c0-1.23,0-2.38,0-3.56c0-0.38,0-0.76,0-1.15C83.26,54.96,81.57,54.96,79.84,54.96z"/>
		<path id="XMLID_26_" class="st1" d="M61.58,54.42c-4.02,0.05-8.04,0.02-12.05,0.02c-1.15,0-2.3-0.02-3.44,0.02
			c-0.22,0.01-0.61,0.27-0.61,0.42c-0.04,2.31-0.03,4.63-0.03,7.07c3.31,0,6.52,0,9.84,0c-0.13,0.48-0.21,0.82-0.32,1.16
			c-1.51,4.47-6.13,6.69-11.09,5.88c-6.15-1.01-9.98-6.71-8.89-12.88c0.16-0.87,0.43-1.7,0.78-2.48c2.03-4.47,7.07-7.19,12.04-6.1
			c1.78,0.39,3.31,1.25,4.62,2.4c1.79-1.8,3.53-3.56,5.38-5.43c-0.12-0.09-0.29-0.22-0.45-0.35c-4.34-3.67-9.33-5.01-14.92-4.1
			c-8.03,1.31-13.81,7.64-15.1,15.03c-0.55,3.16-0.29,6.51,0.97,9.75c3.06,7.85,10.95,12.63,19.38,11.7c4.12-0.45,7.79-1.94,10.67-5
			c4.24-4.51,5.33-9.97,4.65-15.95C62.9,54.6,62.5,54.41,61.58,54.42z"/>
	</g>
</g>
</svg>
