<?xml version="1.0" encoding="utf-8"?>
<!-- Generator: Adobe Illustrator 23.0.1, SVG Export Plug-In . SVG Version: 6.00 Build 0)  -->
<svg version="1.0" id="Isolation_Mode" xmlns="http://www.w3.org/2000/svg" xmlns:xlink="http://www.w3.org/1999/xlink" x="0px"
	 y="0px" viewBox="0 0 112.04 112.04" style="enable-background:new 0 0 112.04 112.04;" xml:space="preserve">
<style type="text/css">
	.st0{fill:#43BDEF;}
	.st1{fill:#FFFFFF;}
</style>
<g>
	<path id="XMLID_49_" class="st0" d="M112.04,56.02c0,30.94-25.08,56.02-56.02,56.02S0,86.96,0,56.02C0,25.08,25.08,0,56.02,0
		S112.04,25.08,112.04,56.02z"/>
	<path id="XMLID_47_" class="st1" d="M89.2,38.93c-2.44,1.07-5.06,1.78-7.82,2.11c2.81-1.66,4.97-4.28,5.99-7.42
		c-2.63,1.54-5.55,2.65-8.65,3.26c-2.48-2.6-6.02-4.23-9.93-4.23c-7.52,0-13.61,6-13.61,13.4c0,1.05,0.12,2.07,0.35,3.05
		c-11.31-0.56-21.35-5.9-28.06-14c-1.17,1.98-1.85,4.28-1.85,6.74c0,4.65,2.41,8.75,6.06,11.15c-2.23-0.07-4.33-0.67-6.17-1.68
		c0,0.06,0,0.11,0,0.17c0,1.72,0.33,3.35,0.93,4.86c1.66,4.2,5.41,7.38,9.99,8.29c-1.15,0.3-2.34,0.47-3.59,0.47
		c-0.87,0-1.73-0.09-2.56-0.24c1.74,5.32,6.76,9.2,12.72,9.31c-4.66,3.6-10.53,5.74-16.91,5.74c-1.1,0-2.18-0.06-3.25-0.19
		c6.03,3.8,13.19,6.02,20.87,6.02c21.28,0,34.36-14.74,37.81-30.04c0.61-2.7,0.93-5.43,0.93-8.09c0-0.58-0.01-1.16-0.04-1.73
		C85.07,43.98,87.38,41.62,89.2,38.93z"/>
</g>
</svg>
