<?xml version="1.0" encoding="utf-8"?>
<!-- Generator: Adobe Illustrator 15.1.0, SVG Export Plug-In . SVG Version: 6.00 Build 0)  -->
<!DOCTYPE svg PUBLIC "-//W3C//DTD SVG 1.1//EN" "http://www.w3.org/Graphics/SVG/1.1/DTD/svg11.dtd">
<svg version="1.1" id="Layer_1" xmlns="http://www.w3.org/2000/svg" xmlns:xlink="http://www.w3.org/1999/xlink" x="0px" y="0px"
	 width="81.177px" height="76.036px" viewBox="0 0 81.177 76.036" enable-background="new 0 0 81.177 76.036" xml:space="preserve">
<path d="M76.177,33.018H17.071L41.553,8.536c1.952-1.953,1.952-5.119,0-7.071c-1.953-1.952-5.118-1.952-7.071,0L1.464,34.484
	c-1.953,1.951-1.953,5.117,0,7.07l33.017,33.018c0.977,0.977,2.256,1.465,3.535,1.465s2.56-0.488,3.536-1.465
	c1.952-1.953,1.952-5.119,0-7.07L17.071,43.019h59.106c2.762,0,5-2.238,5-5S78.938,33.018,76.177,33.018z"/>
</svg>
