<?xml version="1.0" encoding="utf-8"?>
<!-- Generator: Adobe Illustrator 15.1.0, SVG Export Plug-In . SVG Version: 6.00 Build 0)  -->
<!DOCTYPE svg PUBLIC "-//W3C//DTD SVG 1.0//EN" "http://www.w3.org/TR/2001/REC-SVG-20010904/DTD/svg10.dtd">
<svg version="1.0" id="Layer_1" xmlns="http://www.w3.org/2000/svg" xmlns:xlink="http://www.w3.org/1999/xlink" x="0px" y="0px"
	 width="62.801px" height="62.801px" viewBox="0 0 62.801 62.801" enable-background="new 0 0 62.801 62.801" xml:space="preserve">
<path d="M38.471,31.401L61.336,8.536c1.953-1.953,1.953-5.119,0-7.071c-1.951-1.952-5.119-1.952-7.07,0L31.4,24.33L8.536,1.464
	c-1.952-1.951-5.117-1.952-7.071,0c-1.953,1.953-1.953,5.119,0,7.071L24.33,31.401L1.464,54.266c-1.953,1.952-1.953,5.118,0,7.07
	C2.441,62.313,3.72,62.801,5,62.801s2.559-0.488,3.536-1.465L31.4,38.471l22.865,22.865c0.976,0.977,2.256,1.465,3.535,1.465
	s2.56-0.488,3.535-1.465c1.953-1.952,1.953-5.118,0-7.07L38.471,31.401z"/>
</svg>
