<?xml version="1.0" encoding="utf-8"?>
<!-- Generator: Adobe Illustrator 15.1.0, SVG Export Plug-In . SVG Version: 6.00 Build 0)  -->
<!DOCTYPE svg PUBLIC "-//W3C//DTD SVG 1.0//EN" "http://www.w3.org/TR/2001/REC-SVG-20010904/DTD/svg10.dtd">
<svg version="1.0" id="Layer_1" xmlns="http://www.w3.org/2000/svg" xmlns:xlink="http://www.w3.org/1999/xlink" x="0px" y="0px"
	 width="77.562px" height="77.562px" viewBox="0 0 77.562 77.562" enable-background="new 0 0 77.562 77.562" xml:space="preserve">
<path d="M76.684,36.66L66.666,26.643c-1.171-1.172-3.071-1.172-4.242,0c-1.172,1.171-1.172,3.071,0,4.242l4.896,4.896H41.781V10.242
	l4.896,4.896c0.585,0.586,1.354,0.879,2.121,0.879s1.536-0.293,2.121-0.879c1.172-1.171,1.172-3.071,0-4.242L40.902,0.879
	c-1.171-1.172-3.071-1.172-4.242,0L26.643,10.896c-1.172,1.171-1.172,3.071,0,4.242c1.171,1.172,3.071,1.172,4.242,0l4.896-4.896
	v25.539H10.243l4.896-4.896c1.172-1.171,1.172-3.071,0-4.242c-1.171-1.172-3.071-1.172-4.242,0L0.879,36.66
	c-1.172,1.171-1.172,3.071,0,4.242L10.896,50.92c0.585,0.586,1.354,0.879,2.121,0.879s1.536-0.293,2.121-0.879
	c1.172-1.171,1.172-3.071,0-4.242l-4.896-4.896h25.539V67.32l-4.896-4.896c-1.171-1.172-3.071-1.172-4.242,0
	c-1.172,1.171-1.172,3.071,0,4.242L36.66,76.684c0.585,0.586,1.354,0.879,2.121,0.879s1.536-0.293,2.121-0.879L50.92,66.666
	c1.172-1.171,1.172-3.071,0-4.242c-1.171-1.172-3.071-1.172-4.242,0l-4.896,4.896V41.781H67.32l-4.896,4.896
	c-1.172,1.171-1.172,3.071,0,4.242c0.585,0.586,1.354,0.879,2.121,0.879s1.536-0.293,2.121-0.879l10.018-10.018
	C77.855,39.731,77.855,37.831,76.684,36.66z"/>
</svg>
