<?xml version="1.0" encoding="utf-8"?>
<!-- Generator: Adobe Illustrator 15.1.0, SVG Export Plug-In . SVG Version: 6.00 Build 0)  -->
<!DOCTYPE svg PUBLIC "-//W3C//DTD SVG 1.0//EN" "http://www.w3.org/TR/2001/REC-SVG-20010904/DTD/svg10.dtd">
<svg version="1.0" id="_x31_7" xmlns="http://www.w3.org/2000/svg" xmlns:xlink="http://www.w3.org/1999/xlink" x="0px" y="0px"
	 width="35.472px" height="31.134px" viewBox="0 0 35.472 31.134" enable-background="new 0 0 35.472 31.134" xml:space="preserve">
<g>
	<path fill-rule="evenodd" clip-rule="evenodd" d="M16.755,29.888c0-0.567-0.557-1.124-1.113-1.124
		c-7.264,0-13.124-6.006-13.124-13.125c0-7.264,5.86-13.125,13.124-13.125c6.707,0,12.299,5.172,12.99,11.869H25.69
		c-0.535,0-0.824,0.277-1.114,0.566c-0.134,0.268-0.134,0.412-0.134,0.689c0,0.145,0,0.423,0.134,0.557l4.345,7.408
		c0.134,0.411,0.557,0.556,0.98,0.556c0.4,0,0.958-0.145,1.092-0.556l4.211-7.408c0.134-0.134,0.268-0.412,0.268-0.557v-0.133
		c0-0.145-0.134-0.289-0.268-0.557c-0.156-0.289-0.557-0.566-1.137-0.566h-2.918C30.458,6.285,23.751,0,15.642,0
		C6.996,0,0,6.985,0,15.639c0,8.521,6.996,15.495,15.642,15.495C16.198,31.134,16.755,30.578,16.755,29.888L16.755,29.888z"/>
</g>
</svg>
