<?xml version="1.0" encoding="utf-8"?>
<!-- Generator: Adobe Illustrator 22.1.0, SVG Export Plug-In . SVG Version: 6.00 Build 0)  -->
<svg version="1.1" id="Layer_1" xmlns="http://www.w3.org/2000/svg" xmlns:xlink="http://www.w3.org/1999/xlink" x="0px" y="0px"
	 viewBox="0 0 453 274" style="enable-background:new 0 0 453 274;" xml:space="preserve">
<style type="text/css">
	.st0{fill:#FFFFFF;}
</style>
<g>
	<path class="st0" d="M67.8,257h-2.5c-10.9,0-20.6-3.2-28.8-9.5c-8.2-6.4-12.4-15.5-12.4-27.2c0-9.6,2.6-17.3,7.8-22.6
		c5.1-5.3,11.7-9.7,19.7-13.2l2-1l-2-2.7c-0.4-0.4-0.7-0.8-1.1-1.3c-0.3-0.5-0.6-0.9-1-1.4c-1.8-2.5-3.5-5.2-4.9-8.2
		c-1.5-3.1-2.3-6.9-2.3-11.3c0-11.1,4.1-19.9,12.3-26.1c8.1-6.1,17.4-9.3,27.6-9.3c10.1,0,19.5,3.1,27.7,9.2
		c8.3,6.2,12.5,14.9,12.5,25.9c0,8-2.4,14.4-7,19.1c-4.3,4.3-9.6,8.1-15.7,11.3l14.3,14.9c2.8-2.5,5.6-5.1,8.1-7.7
		c2.7-2.8,5.3-5.9,7.6-9.2l0.6-0.9l19.9,18.9L133,223.1l29,30.5h-43.4l-10.5-11.4c-5.7,3.9-12,7.3-18.7,10
		C82.3,255,75.1,256.6,67.8,257L67.8,257z M82.3,124.9c-9.8,0-18.8,3-26.5,8.9c-7.7,5.8-11.5,14.1-11.5,24.6c0,4.2,0.7,7.7,2.1,10.5
		c1.4,2.9,3,5.6,4.7,7.9c0.3,0.4,0.7,0.9,1,1.4c0.3,0.4,0.6,0.8,0.9,1.1l0.1,0.1l3.3,4.6l-4,2c-7.8,3.4-14.2,7.7-19.1,12.8
		c-4.9,5-7.3,12.2-7.3,21.3c0,11.1,3.9,19.7,11.7,25.7c7.8,6.1,17.1,9.1,27.6,9.1h2.5c7.1-0.3,14.1-1.9,20.9-4.6
		c6.8-2.7,13.2-6.2,19-10.2l0.7-0.5l11.1,11.9h38.2L130.4,223l2.1-2.1l15.2-16.3l-17-16.1c-2.2,3-4.6,5.9-7.1,8.6
		c-2.8,2.9-5.8,5.7-8.9,8.4L114,206l-17.3-18l1.1-0.6c6.4-3.2,11.9-7,16.3-11.5c4.3-4.4,6.5-10.3,6.5-17.8c0-10.4-4-18.6-11.8-24.4
		C100.9,127.9,92,124.9,82.3,124.9 M72.9,227.8h-1c-0.4,0-0.8-0.1-1.2-0.2c-3.1-0.4-6-1.6-8.7-3.6c-2.8-2.1-4.2-5-4.2-8.7
		c0-3.2,1.1-6,3.2-8.4c2-2.2,4.2-4.1,6.6-5.7c0.4-0.3,0.8-0.6,1.2-0.9c0.4-0.3,0.8-0.6,1.2-0.9l0.7-0.5l20.6,22.2v1.1l-0.5,0.3
		c-2.6,1.5-5.4,2.7-8.5,3.7C79.3,227.3,76.1,227.8,72.9,227.8 M70.5,201.5c-0.2,0.2-0.4,0.3-0.6,0.4c-0.4,0.3-0.8,0.6-1.2,0.9
		c-2.3,1.5-4.4,3.4-6.3,5.5c-1.8,2-2.7,4.3-2.7,7.1c0,3.1,1.1,5.4,3.5,7.2c2.4,1.8,5,2.9,7.9,3.2l0.2,0c0.2,0.1,0.5,0.1,0.7,0.1h1
		c3,0,6-0.5,8.9-1.5c2.6-0.9,5-1.9,7.2-3.1L70.5,201.5z M84.1,173.9L84.1,173.9h-0.4l-0.6-0.6l0,0c-1.2-1.4-6.3-7.3-7.6-9.4
		c-1.5-2.4-2.2-4.9-2.2-7.4c0-3.4,1.1-6.1,3.4-8.2c2.2-2,4.9-3.1,8-3.1c3.6,0,6.5,1.3,8.7,3.7c2.1,2.4,3.2,5.4,3.2,8.9
		c0,3.4-1.2,6.5-3.6,9.2C91.5,168.8,85.1,173.9,84.1,173.9 M84.7,147.1c-2.7,0-4.9,0.8-6.8,2.6c-1.9,1.7-2.8,3.9-2.8,6.8
		c0,2.2,0.7,4.3,1.9,6.4c1.1,1.8,5.7,7.1,7.2,8.9c1.5-1,5.7-4.1,7.4-6c2.1-2.3,3.1-4.9,3.1-8c0-3-0.9-5.5-2.8-7.6
		C90.2,148.1,87.8,147.1,84.7,147.1"/>
	<path class="st0" d="M67.8,259h-2.5c-11.4,0-21.5-3.3-30-9.9c-8.8-6.8-13.2-16.5-13.2-28.8c0-10.2,2.8-18.3,8.4-24
		c5.2-5.4,12-10,20.1-13.5L50,182c-0.4-0.4-0.8-0.9-1.2-1.5c-0.3-0.5-0.6-0.9-0.9-1.3c-1.9-2.6-3.6-5.5-5.1-8.5
		c-1.6-3.3-2.5-7.4-2.5-12.2c0-11.8,4.4-21.1,13.1-27.7c8.4-6.4,18.1-9.7,28.8-9.7c10.6,0,20.3,3.2,28.9,9.6
		c8.9,6.5,13.3,15.8,13.3,27.5c0,8.5-2.6,15.4-7.6,20.5c-3.9,3.9-8.5,7.4-13.8,10.4l11.2,11.6c2.3-2,4.5-4.2,6.5-6.3
		c2.7-2.8,5.1-5.8,7.4-9l0.6-0.9c0.3-0.5,0.9-0.8,1.4-0.8c0.6-0.1,1.2,0.1,1.6,0.5l19.9,18.9c0.8,0.8,0.8,2,0.1,2.8l-16,17.2
		l27.7,29.2c0.6,0.6,0.7,1.4,0.4,2.2c-0.3,0.7-1,1.2-1.8,1.2h-43.4c-0.6,0-1.1-0.2-1.5-0.6l-9.4-10.1c-5.5,3.6-11.4,6.7-17.7,9.2
		c-7.2,2.9-14.7,4.5-22.2,4.9C67.9,259,67.8,259,67.8,259z M82.3,126.9c-9.4,0-17.9,2.9-25.3,8.5c-7.1,5.4-10.7,13.2-10.7,23.1
		c0,3.9,0.6,7.1,1.9,9.6c1.4,2.8,2.9,5.3,4.6,7.6c0.3,0.5,0.7,1,1.1,1.5c0.3,0.4,0.5,0.7,0.6,0.8c0,0,0.1,0.1,0.1,0.1l0.1,0.1
		c0,0,0.1,0.1,0.1,0.1l3.3,4.6c0.3,0.5,0.5,1.1,0.3,1.7s-0.5,1.1-1,1.3l-4,2c0,0-0.1,0-0.1,0c-7.5,3.3-13.7,7.4-18.5,12.4
		c-4.5,4.6-6.8,11.3-6.8,19.9c0,10.4,3.7,18.5,10.9,24.1c7.5,5.8,16.4,8.7,26.4,8.7h2.5c6.8-0.3,13.6-1.8,20.2-4.5
		c6.7-2.7,13-6,18.6-10l0.7-0.5c0.8-0.6,1.9-0.4,2.6,0.3l10.5,11.3H153l-24.1-25.3c-0.7-0.8-0.7-2,0-2.8l2.1-2.1l13.8-14.8
		l-13.9-13.2c-1.9,2.4-3.9,4.8-5.9,6.9c-2.8,2.9-5.9,5.8-9,8.5l-0.7,0.6c-0.8,0.7-2,0.6-2.7-0.1l-17.3-18c-0.4-0.5-0.6-1.1-0.5-1.7
		c0.1-0.6,0.5-1.2,1.1-1.4l1.1-0.6c6.2-3.1,11.5-6.8,15.8-11.1c3.9-4,5.9-9.5,5.9-16.4c0-9.7-3.7-17.4-11-22.8
		C100.1,129.8,91.5,126.9,82.3,126.9z M72.9,229.8h-1c-0.5,0-1.1-0.1-1.6-0.2c-3.4-0.4-6.6-1.8-9.5-4c-3.3-2.5-5-6-5-10.2
		c0-3.7,1.2-7,3.7-9.7c2.1-2.3,4.4-4.3,6.9-6c0.4-0.3,0.8-0.6,1.2-0.9c0.4-0.3,0.8-0.6,1.2-0.9l0.7-0.5c0.8-0.6,2-0.5,2.7,0.2
		l20.6,22.2c0.3,0.4,0.5,0.9,0.5,1.4v1.1c0,0.7-0.4,1.4-1,1.7l-0.5,0.3c-2.7,1.5-5.7,2.8-8.8,3.9C79.7,229.3,76.3,229.8,72.9,229.8z
		 M70.2,204.2c-0.1,0.1-0.2,0.2-0.4,0.3c0,0-0.1,0-0.1,0.1c-2.2,1.4-4.1,3.2-5.9,5.1c-1.5,1.6-2.2,3.5-2.2,5.8
		c0,2.4,0.8,4.2,2.7,5.6c2.1,1.6,4.4,2.6,6.9,2.8c0.1,0,0.1,0,0.2,0l0.2,0c0.1,0,0.2,0,0.2,0.1l1.1,0c2.8,0,5.5-0.5,8.2-1.3
		c1.6-0.5,3.1-1.1,4.6-1.8L70.2,204.2z M84.1,175.9h-0.4c-0.5,0-1.1-0.2-1.4-0.6l-0.6-0.6c-0.1-0.1-0.2-0.2-0.3-0.3
		c-1.7-1.9-6.3-7.4-7.6-9.5c-1.7-2.7-2.5-5.6-2.5-8.4c0-3.9,1.4-7.2,4-9.6c2.6-2.4,5.8-3.6,9.4-3.6c4.2,0,7.6,1.5,10.2,4.4
		c2.5,2.8,3.7,6.2,3.7,10.2c0,3.9-1.4,7.5-4.1,10.5C94,169,86.5,175.9,84.1,175.9z M84.7,149.1c-2.2,0-3.9,0.7-5.4,2.1
		c-1.5,1.3-2.1,3-2.1,5.3c0,1.8,0.6,3.6,1.7,5.4c0.7,1.2,3.4,4.4,5.8,7.2c1.9-1.4,4.4-3.4,5.6-4.7c1.8-2,2.6-4.1,2.6-6.6
		c0-2.5-0.7-4.5-2.3-6.3C89.1,149.8,87.2,149.1,84.7,149.1z"/>
	<path class="st0" d="M330.7,254.2h-35.1l-9.1-71.5l-29.8,71.5h-14.5l-28.5-71.5l-10.4,71.5h-34.9l22-129.6h34.1l25.3,66.6
		l26.8-66.6h34.5l0.1,0.8L330.7,254.2z M297.2,252.3h31.3l-19-125.9h-31.6l-28.1,69.9l-26.5-69.9H192l-21.4,125.9h31.1l10.7-73.5
		h1.8l29.3,73.5h12l30.7-73.5h1.8L297.2,252.3z"/>
	<path class="st0" d="M330.7,256.2h-35.1c-1,0-1.9-0.7-2-1.7l-8.1-64.1L258.5,255c-0.3,0.7-1,1.2-1.8,1.2h-14.5
		c-0.8,0-1.6-0.5-1.9-1.3l-25.7-64.6l-9.3,64.1c-0.1,1-1,1.7-2,1.7h-34.9c-0.6,0-1.1-0.3-1.5-0.7c-0.4-0.4-0.5-1-0.4-1.6l22-129.6
		c0.2-1,1-1.7,2-1.7h34.1c0.8,0,1.6,0.5,1.9,1.3l23.5,61.9l24.9-61.9c0.3-0.8,1-1.3,1.9-1.3h34.5c1,0,1.8,0.7,2,1.7l19.6,129.6
		c0.1,0.6-0.1,1.2-0.5,1.6C331.8,255.9,331.2,256.2,330.7,256.2z M299,250.3h27.2l-18.4-121.9h-28.5l-27.6,68.7
		c-0.3,0.8-1,1.2-1.9,1.3c-0.8,0-1.6-0.5-1.9-1.3l-26-68.6h-28.2L173,250.3h27l10.4-71.8c0.1-1,1-1.7,2-1.7h1.8
		c0.8,0,1.6,0.5,1.9,1.3l28.8,72.3h9.3l30.2-72.3c0.3-0.7,1-1.2,1.8-1.2h1.8c1,0,1.9,0.7,2,1.7L299,250.3z"/>
	<path class="st0" d="M410.1,254.2h-74.5V124.6h74.5v30h-39.5v19.5H408v30h-37.4v20.2h39.5V254.2z M337.4,252.3h70.8v-26.3h-39.5
		v-23.9h37.4v-26.3h-37.4v-23.2h39.5v-26.3h-70.8V252.3z"/>
	<path class="st0" d="M410.1,256.2h-74.5c-1.1,0-2-0.9-2-2V124.6c0-1.1,0.9-2,2-2h74.5c1.1,0,2,0.9,2,2v30c0,1.1-0.9,2-2,2h-37.5
		v15.5H408c1.1,0,2,0.9,2,2v30c0,1.1-0.9,2-2,2h-35.4v16.2h37.5c1.1,0,2,0.9,2,2v30C412.1,255.3,411.2,256.2,410.1,256.2z
		 M339.4,250.3h66.8v-22.3h-37.5c-1.1,0-2-0.9-2-2v-23.9c0-1.1,0.9-2,2-2h35.4v-22.3h-35.4c-1.1,0-2-0.9-2-2v-23.2c0-1.1,0.9-2,2-2
		h37.5v-22.3h-66.8V250.3z"/>
	<path class="st0" d="M185.1,50.2c0,22.9-17.6,35.2-38.6,35.2c-21,0-38.6-12.3-38.6-35.2c0-22.9,17.6-35.2,38.6-35.2
		C167.5,15,185.1,27.3,185.1,50.2 M126.2,50.2c0,12.3,9.5,19.2,20.3,19.2c10.8,0,20.3-6.9,20.3-19.2c0-12.3-9.5-19.2-20.3-19.2
		C135.8,31,126.2,37.9,126.2,50.2"/>
	<path class="st0" d="M249.4,15.6l0.1,38.8c-7.6-8.8-28.6-33.1-32.8-38.8h-20.2v68.8h16.6l0-45c23.6,27.9,36.1,41.7,38.8,45h14V15.5
		h-16.6"/>
	<path class="st0" d="M279.8,84.8V16l37.6,0c22.7,0,33.4,14.9,33.4,34.4c0,17.9-11.7,34.4-34.7,34.4H279.8z M298.4,69.4h15.7
		c13.1,0,18.4-7.8,18.4-19c0-11.1-5.3-19-18.4-19h-15.7V69.4z"/>
	<path class="st0" d="M360.4,78.8c1.9,1,4.2,2,7,2.8c4.9,1.8,13.6,4.8,28.4,4.8c26.8,0,34.9-12.4,34.9-23.7
		c0-30.1-51.2-15.8-51.2-27.5c0-3,3.7-6.1,14.5-6.1c7.3,0,15.5,1.3,20.6,3.2c2.8,1,5.4,2.1,7.8,3.4l5.8-12c-3.1-1.2-6.5-2.9-10-3.8
		c-5.9-1.6-14.9-3.9-25.7-3.9c-18.2,0-30,9-30,22.1c0,25.2,50.9,14.5,50.9,24.2c0,5.7-5.6,8.9-17.9,8.9c-7.1,0-14.3-1.8-19.3-4
		c-4.3-1.8-4.3-1.9-9.7-4.5L360.4,78.8z"/>
	<path class="st0" d="M29.3,84.8V16L73,16c13.4,0,23.1,5.2,23.1,18.2c0,7.8-4.9,12.7-11.9,14.3v0.3c8.3,2.4,14.3,7.1,14.3,16.7
		c0,10.5-7.4,19.4-25,19.4H29.3z M47.9,41.9h16.8c10.6,0,13.3-0.8,13.3-6c0-5.2-2.7-6-13.3-6H47.9V41.9z M47.9,70.9h21
		c8.7,0,12.1-2.1,12.1-7.8c0-5.8-3.5-7.8-12.1-7.8h-21V70.9z"/>
	<path class="st0" d="M98.9,96.7l-5,8.1c-1.7,2.6-3.7,4.5-6.8,4.5l-63.5-0.2l0.1,0l5-7.8c1.7-2.6,3.6-4.6,6.7-4.6H98.9z"/>
	<path class="st0" d="M181.9,96.7l-5,8.1c-1.7,2.6-3.7,4.5-6.8,4.5l-63.5-0.2l0,0l5-7.8c1.7-2.6,3.6-4.6,6.7-4.6H181.9z"/>
	<path class="st0" d="M264.9,96.7l-5,8.1c-1.7,2.6-3.7,4.5-6.8,4.5l-63.5-0.2l0,0l5-7.8c1.7-2.6,3.6-4.6,6.7-4.6H264.9z"/>
	<path class="st0" d="M347.9,96.7l-5,8.1c-1.7,2.6-3.7,4.5-6.8,4.5l-63.5-0.2l0,0l5-7.8c1.7-2.6,3.6-4.6,6.7-4.6H347.9z"/>
	<path class="st0" d="M430.9,96.7l-5,8.1c-1.7,2.6-3.7,4.5-6.8,4.5l-63.5-0.2l0.1,0l5-7.8c1.7-2.6,3.6-4.6,6.7-4.6H430.9z"/>
	<path class="st0" d="M422.2,132.6c1.3,0,3.4,0.2,3.4-1.7c0-1.5-1.3-1.7-2.5-1.7h-2.7v3.4H422.2z M426.7,137.9h-1.4l-2.7-4.4h-2.2
		v4.4h-1.2v-9.6h4.2c0.8,0,1.6,0,2.3,0.5c0.7,0.4,1.1,1.3,1.1,2.1c0,1.9-1.3,2.6-3,2.6L426.7,137.9z M429.9,133.1
		c0-4.1-3.4-7.5-7.5-7.5c-4.2,0-7.5,3.4-7.5,7.5c0,4.2,3.4,7.5,7.5,7.5C426.6,140.7,429.9,137.3,429.9,133.1 M413.8,133.1
		c0-4.7,3.8-8.5,8.6-8.5c4.7,0,8.5,3.8,8.5,8.5c0,4.7-3.8,8.6-8.5,8.6C417.7,141.7,413.8,137.9,413.8,133.1"/>
</g>
</svg>
