<?xml version="1.0" encoding="utf-8"?>
<!-- Generator: Adobe Illustrator 23.0.1, SVG Export Plug-In . SVG Version: 6.00 Build 0)  -->
<svg version="1.0" id="Layer_1" xmlns="http://www.w3.org/2000/svg" xmlns:xlink="http://www.w3.org/1999/xlink" x="0px" y="0px"
	 viewBox="0 0 12 12" style="enable-background:new 0 0 12 12;" xml:space="preserve">
<style type="text/css">
	.st0{fill:#FFFFFF;}
</style>
<path class="st0" d="M7.41,6l4.29-4.29c0.39-0.39,0.39-1.02,0-1.41s-1.02-0.39-1.41,0L6,4.59L1.71,0.29c-0.39-0.39-1.02-0.39-1.41,0
	s-0.39,1.02,0,1.41L4.59,6l-4.29,4.29c-0.39,0.39-0.39,1.02,0,1.41C0.49,11.9,0.74,12,1,12s0.51-0.1,0.71-0.29L6,7.41l4.29,4.29
	C10.49,11.9,10.74,12,11,12s0.51-0.1,0.71-0.29c0.39-0.39,0.39-1.02,0-1.41L7.41,6z"/>
</svg>
